<svg xmlns="http://www.w3.org/2000/svg" xmlns:xlink="http://www.w3.org/1999/xlink" width="313" height="313" viewBox="0 0 313 313">
  <defs>
    <clipPath id="clip-warningicon-01">
      <rect width="313" height="313"/>
    </clipPath>
  </defs>
  <g id="warningicon-01" clip-path="url(#clip-warningicon-01)">
    <g id="Group_1612" data-name="Group 1612">
      <rect id="Rectangle_662" data-name="Rectangle 662" width="165" height="52" transform="translate(83 167)" fill="#fff"/>
      <path id="Path_1119" data-name="Path 1119" d="M135.858,146.19c.839,0,2.115-.046,3.386.006,16.275.651,30.316-4.182,41.46-16.518a6.039,6.039,0,0,1,4.585-1.611c9.787,1.295,19.143.325,28.045-4.2a5.708,5.708,0,0,1,3.742-.574c20.527,5.811,39.412-9.4,41.787-30.724,2.568-23.087-8.321-37.744-29.221-42.825-3.091-.753-4.787-1.794-6.286-4.527-8.224-14.99-22.706-22.829-38.7-20.352-4.342.67-6.03-.66-8.245-3.819-19.946-28.436-58.255-27.964-77.745.83-.806,1.191-1.7,2.321-2.612,3.561C88.2,21.089,80.212,18.7,71.484,20.16c-13.889,2.331-23.458,10.351-29.1,23-1.5,3.378-3.158,4.348-6.875,4.473-5.168.175-10.7.814-15.359,2.879C5.289,57.1-2.649,74.5.8,92.373c4.556,23.618,26.663,36.1,46.393,27.439a4.505,4.505,0,0,1,3.869.425c14.006,11.319,29.344,13.719,46.18,7.42,1.074-.4,3.116-.148,3.792.614,6.994,7.878,15.7,13,26.272,16.285-2.142,2.358-3.959,4.236-5.636,6.232-4.683,5.582-9.71,10.934-13.852,16.9-4.748,6.835-2.45,16.016,4.39,20.546s16.322,3.008,20.562-4.057a24.931,24.931,0,0,0,2.956-11.275c.423-8.719.133-17.471.133-26.709m-71.4-7.266c-.6-.15-1.209-.3-1.813-.454-9.31,9.924-19.657,19-26.544,30.976-3.058,5.32-1.844,11.034,2.077,15.765,3.776,4.554,8.794,6.492,14.649,5.158,6.163-1.4,11.142-5.133,11.444-11.531.624-13.277.187-26.6.187-39.913m146.509.171-2.618-.9c-8.324,9.776-16.928,19.33-24.854,29.419-4.057,5.162-3.5,11.321.335,16.674,3.672,5.129,8.883,7.441,15.176,6.113,5.882-1.24,10.381-4.614,11.643-10.939-.008.058.034-.185.071-.431-.005.056.026-.192.051-.445,0,.035.02-.24.032-.52l.012-.278c.553-12.715.152-25.713.152-38.693m-46.234,34.3-2.614-.883c-8.269,9.606-16.8,19-24.7,28.9-4.435,5.555-3.859,12.647.179,17.988a15.427,15.427,0,0,0,16.46,5.2,14.546,14.546,0,0,0,10.607-14.077c.264-12.37.073-24.75.073-37.126m-69.723-.167-1.469-.029c-2.581,2.487-5.355,4.806-7.7,7.5-6.294,7.212-12.8,14.3-18.452,21.994-3.728,5.077-3,11.04.666,16.256a14.6,14.6,0,0,0,15.715,5.832c6.026-1.467,10.738-5.247,11.038-11.29.662-13.392.206-26.838.206-40.261" transform="translate(26.971 38.986)" fill="#fff" stroke="#fff" stroke-width="20"/>
      <path id="Path_1146" data-name="Path 1146" d="M-20576.211,11848.752s6.23-4.686,6.514-14.929c.006-.18.018-11.576,0-12.036-.359-9.782-6.514,9.175-6.514,9.175l-1.451,13.365Z" transform="translate(20818 -11617)" fill="#fff"/>
    </g>
    <path id="Path_1140" data-name="Path 1140" d="M135.858,146.19c.839,0,2.115-.046,3.386.006,16.275.651,30.316-4.182,41.46-16.518a6.039,6.039,0,0,1,4.585-1.611c9.787,1.295,19.143.325,28.045-4.2a5.708,5.708,0,0,1,3.742-.574c20.527,5.811,39.412-9.4,41.787-30.724,2.568-23.087-8.321-37.744-29.221-42.825-3.091-.753-4.787-1.794-6.286-4.527-8.224-14.99-22.706-22.829-38.7-20.352-4.342.67-6.03-.66-8.245-3.819-19.946-28.436-58.255-27.964-77.745.83-.806,1.191-1.7,2.321-2.612,3.561C88.2,21.089,80.212,18.7,71.484,20.16c-13.889,2.331-23.458,10.351-29.1,23-1.5,3.378-3.158,4.348-6.875,4.473-5.168.175-10.7.814-15.359,2.879C5.289,57.1-2.649,74.5.8,92.373c4.556,23.618,26.663,36.1,46.393,27.439a4.505,4.505,0,0,1,3.869.425c14.006,11.319,29.344,13.719,46.18,7.42,1.074-.4,3.116-.148,3.792.614,6.994,7.878,15.7,13,26.272,16.285-2.142,2.358-3.959,4.236-5.636,6.232-4.683,5.582-9.71,10.934-13.852,16.9-4.748,6.835-2.45,16.016,4.39,20.546s16.322,3.008,20.562-4.057a24.931,24.931,0,0,0,2.956-11.275c.423-8.719.133-17.471.133-26.709m-71.4-7.266c-.6-.15-1.209-.3-1.813-.454-9.31,9.924-19.657,19-26.544,30.976-3.058,5.32-1.844,11.034,2.077,15.765,3.776,4.554,8.794,6.492,14.649,5.158,6.163-1.4,11.142-5.133,11.444-11.531.624-13.277.187-26.6.187-39.913m146.509.171-2.618-.9c-8.324,9.776-16.928,19.33-24.854,29.419-4.057,5.162-3.5,11.321.335,16.674,3.672,5.129,8.883,7.441,15.176,6.113,6.627-1.4,11.5-5.5,11.8-12.334.566-12.967.164-25.978.164-38.97m-46.234,34.3-2.614-.883c-8.269,9.606-16.8,19-24.7,28.9-4.435,5.555-3.859,12.647.179,17.988a15.427,15.427,0,0,0,16.46,5.2,14.546,14.546,0,0,0,10.607-14.077c.264-12.37.073-24.75.073-37.126m-69.723-.167-1.469-.029c-2.581,2.487-5.355,4.806-7.7,7.5-6.294,7.212-12.8,14.3-18.452,21.994-3.728,5.077-3,11.04.666,16.256a14.6,14.6,0,0,0,15.715,5.832c6.026-1.467,10.738-5.247,11.038-11.29.662-13.392.206-26.838.206-40.261" transform="translate(26.971 38.986)" fill="#006cff"/>
  </g>
</svg>
