<svg xmlns="http://www.w3.org/2000/svg" xmlns:xlink="http://www.w3.org/1999/xlink" width="313" height="313" viewBox="0 0 313 313">
  <defs>
    <clipPath id="clip-warningicon-06">
      <rect width="313" height="313"/>
    </clipPath>
  </defs>
  <g id="warningicon-06" clip-path="url(#clip-warningicon-06)">
    <g id="Group_1578" data-name="Group 1578">
      <g id="Group_1564" data-name="Group 1564" transform="translate(103.479 19.977)">
        <g id="Group_1528" data-name="Group 1528" transform="translate(0 -1.849)">
          <g id="Group_1527" data-name="Group 1527" transform="translate(0)">
            <path id="Union_20" data-name="Union 20" d="M20726.42-5535.864c14.221-55.677,28.439-111.359,42.885-167.924-18.529,1.062-36.348,2.076-54.783,3.132,3.293-9.649,6.441-18.928,9.605-28.158l1.1-3.2q1.374-4.006,2.75-8.015,7.825-22.8,15.658-45.6,3.252-9.478,6.5-18.959c.1-.3.2-.587.3-.868.7-1.967,1.49-3.481,4.418-3.614,17.717-.787,35.424-1.8,53.135-2.75l5.5-.293c.135-.007.27-.01.41-.008.689.006,1.471.1,2.779.17-10.752,21.735-21.322,43.114-32.33,65.377,18.344-1.062,35.789-2.071,54.342-3.148q-23.792,45.868-47.395,91.365-15,28.926-29.965,57.769-1.028,2.282-2.049,4.565c-.09-.036-.172-.073-.262-.114q-11.736,22.628-23.461,45.229-4.025,7.765-8.055,15.53C20727.137-5535.54,20726.775-5535.7,20726.42-5535.864Z" transform="translate(-20714.521 5812.127)" fill="#fff" stroke="#fff" stroke-miterlimit="10" stroke-width="20"/>
          </g>
        </g>
      </g>
    </g>
    <g id="Group_1597" data-name="Group 1597">
      <g id="Group_1564-2" data-name="Group 1564" transform="translate(103.479 19.977)">
        <g id="Group_1528-2" data-name="Group 1528" transform="translate(0 -1.849)">
          <g id="Group_1527-2" data-name="Group 1527" transform="translate(0)">
            <path id="Union_20-2" data-name="Union 20" d="M20726.42-5535.864c14.221-55.677,28.439-111.359,42.885-167.924-18.529,1.062-36.348,2.076-54.783,3.132,3.293-9.649,6.441-18.928,9.605-28.158l1.1-3.2q1.374-4.006,2.75-8.015,7.825-22.8,15.658-45.6,3.252-9.478,6.5-18.959c.1-.3.2-.587.3-.868.7-1.967,1.49-3.481,4.418-3.614,17.717-.787,35.424-1.8,53.135-2.75l5.5-.293c.135-.007.27-.01.41-.008.689.006,1.471.1,2.779.17-10.752,21.735-21.322,43.114-32.33,65.377,18.344-1.062,35.789-2.071,54.342-3.148q-23.792,45.868-47.395,91.365-15,28.926-29.965,57.769-1.028,2.282-2.049,4.565c-.09-.036-.172-.073-.262-.114q-11.736,22.628-23.461,45.229-4.025,7.765-8.055,15.53C20727.137-5535.54,20726.775-5535.7,20726.42-5535.864Z" transform="translate(-20714.521 5812.127)" fill="#006cff"/>
          </g>
        </g>
      </g>
    </g>
  </g>
</svg>