<svg xmlns="http://www.w3.org/2000/svg" xmlns:xlink="http://www.w3.org/1999/xlink" width="35" height="35" viewBox="0 0 35 35">
  <defs>
    <clipPath id="clip-path">
      <rect id="Rectangle_746" data-name="Rectangle 746" width="31.169" height="31.237" fill="none"/>
    </clipPath>
    <clipPath id="clip-_main_tropical_v4">
      <rect width="35" height="35"/>
    </clipPath>
  </defs>
  <g id="_main_tropical_v4" data-name=" main_tropical_v4" clip-path="url(#clip-_main_tropical_v4)">
    <g id="Group_1740" data-name="Group 1740" transform="translate(1.916 1.881)">
      <g id="Group_1739" data-name="Group 1739" transform="translate(0 0)" clip-path="url(#clip-path)">
        <path id="Path_1245" data-name="Path 1245" d="M29.384,11.6c-3.175-5.3-8.036-7.855-14.466-7.606a11.418,11.418,0,0,1,5.6-2.57L23.272.933,20.515.465a12.852,12.852,0,0,0-9.579,1.947C6.057,5.663,3.723,10.4,3.985,16.5a11.586,11.586,0,0,1-2.569-5.6L.923,8.173.462,10.911a12.948,12.948,0,0,0,2.21,9.981A15.086,15.086,0,0,0,16.529,27.44a7.722,7.722,0,0,1-2.115,1.4c-.8.345-1.63.625-2.437.9-.355.119-.7.236-1.043.357l-1.585.562,1.641.368a9.966,9.966,0,0,0,2.168.227A13.639,13.639,0,0,0,20.672,28.9a14.955,14.955,0,0,0,6.727-14,11.265,11.265,0,0,1,2.584,5.687l.451,2.742.5-2.734a12.588,12.588,0,0,0-1.552-9m-2.172,1.713L26.4,12.54v1.121c0,.119,0,.223,0,.319a5.217,5.217,0,0,0,.008.538A14.108,14.108,0,0,1,20.119,28.1a12.628,12.628,0,0,1-6.742,2.173c.475-.168.952-.348,1.423-.553a9.741,9.741,0,0,0,3.355-2.546l.853-.943-1.264.137c-6.243.676-10.916-1.3-14.281-6.041a11.785,11.785,0,0,1-2.235-6.55,12.123,12.123,0,0,0,3.007,4.387l.946.89-.132-1.292C4.39,11.3,6.492,6.538,11.473,3.217a11.633,11.633,0,0,1,6.159-1.99,11.984,11.984,0,0,0-4.364,3l-.874.934,1.274-.122C20.454,4.4,25.324,6.7,28.553,12.093A11.4,11.4,0,0,1,30.2,17.7a11.891,11.891,0,0,0-2.99-4.392" transform="translate(-0.129 -0.129)" fill="#2D6AF6"/>
        <path id="Path_1246" data-name="Path 1246" d="M13.03,31.237a10.12,10.12,0,0,1-2.2-.23l-2.051-.46,1.981-.7c.336-.119.682-.235,1.034-.353.815-.274,1.648-.553,2.439-.9a7.438,7.438,0,0,0,1.823-1.149A15.148,15.148,0,0,1,2.444,20.833,13.066,13.066,0,0,1,.215,10.763L.791,7.339l.617,3.416a11.5,11.5,0,0,0,2.316,5.268A15.18,15.18,0,0,1,10.74,2.182,12.962,12.962,0,0,1,20.406.217L23.853.8l-3.442.608a11.337,11.337,0,0,0-5.273,2.319c6.3-.142,11.083,2.437,14.222,7.676a12.714,12.714,0,0,1,1.567,9.086L30.3,23.907l-.565-3.428a11.155,11.155,0,0,0-2.324-5.35,15.025,15.025,0,0,1-6.8,13.741,13.782,13.782,0,0,1-7.583,2.367M9.657,30.5l1.23.275a9.848,9.848,0,0,0,2.142.224,13.536,13.536,0,0,0,7.444-2.323A14.843,14.843,0,0,0,27.149,14.78l-.022-.358.235.272a11.354,11.354,0,0,1,2.611,5.746l.339,2.056.377-2.05a12.47,12.47,0,0,0-1.537-8.917C26,6.274,21.161,3.733,14.794,3.982L14.447,4l.264-.227a11.507,11.507,0,0,1,5.657-2.6L22.434.807,20.366.455a12.737,12.737,0,0,0-9.491,1.928c-4.836,3.224-7.157,7.929-6.9,13.987l.016.352-.229-.268a11.673,11.673,0,0,1-2.6-5.656L.8,8.749.453,10.8a12.834,12.834,0,0,0,2.188,9.89,14.986,14.986,0,0,0,13.753,6.5l.34-.017-.252.228a7.886,7.886,0,0,1-2.148,1.417c-.8.347-1.638.628-2.447.9-.36.121-.706.237-1.04.356Zm2.848-.212.7-.249c.549-.195,1-.369,1.415-.55a9.627,9.627,0,0,0,3.313-2.515l.639-.708-.948.1c-6.293.68-11-1.312-14.394-6.092A11.93,11.93,0,0,1,.978,13.657l-.023-.69.256.641a11.932,11.932,0,0,0,2.977,4.344l.71.668-.1-.969C4.136,11.132,6.255,6.336,11.278,2.988A11.774,11.774,0,0,1,17.5.978l.692-.023-.642.257a11.8,11.8,0,0,0-4.32,2.975l-.656.7.956-.092c6.844-.65,11.747,1.674,15,7.107a11.555,11.555,0,0,1,1.665,5.666l.02.7-.254-.65A11.713,11.713,0,0,0,27,13.269l-.613-.577v.841c0,.119,0,.225,0,.321a4.842,4.842,0,0,0,.008.526A14.224,14.224,0,0,1,20.06,28.075a12.817,12.817,0,0,1-6.808,2.2Zm6.678-4.331-1.066,1.18a9.868,9.868,0,0,1-3.4,2.575c-.213.093-.435.183-.674.276a12.617,12.617,0,0,0,5.875-2.107A14,14,0,0,0,26.15,14.4a5.208,5.208,0,0,1-.009-.551c0-.1,0-.2,0-.317v-1.4l1.021.961a11.98,11.98,0,0,1,2.745,3.787,11.311,11.311,0,0,0-1.591-4.853c-3.2-5.345-8.034-7.633-14.769-6.99l-1.592.152L13.051,4.02a12.075,12.075,0,0,1,3.768-2.758A11.536,11.536,0,0,0,11.412,3.19c-4.94,3.293-7.025,8.016-6.371,14.436L5.2,19.24,4.023,18.128a12.2,12.2,0,0,1-2.761-3.792,11.707,11.707,0,0,0,2.17,5.8c3.339,4.7,7.975,6.661,14.17,5.991Z" transform="translate(0 0)" fill="#2D6AF6"/>
        <path id="Path_1247" data-name="Path 1247" d="M28.853,28.972A5.8,5.8,0,0,0,30.541,23.3a4.871,4.871,0,0,0-2.087-3.013l-.919-.624.575.95a5.011,5.011,0,0,1,.759,1.928,5.751,5.751,0,0,0-4.127-1.865A5.086,5.086,0,0,0,20.2,22.93l-.665.937.986-.589a5.025,5.025,0,0,1,1.923-.762,5.79,5.79,0,0,0-1.706,5.621,4.72,4.72,0,0,0,2.11,3.056l.946.608-.611-.943a4.589,4.589,0,0,1-.764-1.913,5.812,5.812,0,0,0,5.583,1.724,4.8,4.8,0,0,0,3.106-2.185l.36-.76-.709.452a4.8,4.8,0,0,1-1.91.8m-.946,1.223a5.426,5.426,0,0,1-5.573-2.059l-.4-.473-.021.622a4.262,4.262,0,0,0,.292,1.723,4.335,4.335,0,0,1-.984-1.976,5.4,5.4,0,0,1,2.031-5.6l.452-.392-.6-.033a4.023,4.023,0,0,0-1.674.275,4.648,4.648,0,0,1,3.3-1.123,5.359,5.359,0,0,1,4.224,2.212l.4.507.027-.648a4.3,4.3,0,0,0-.291-1.744,4.343,4.343,0,0,1,.974,1.921,5.41,5.41,0,0,1-2.016,5.649l-.452.393.6.032a3.9,3.9,0,0,0,1.745-.315,4.831,4.831,0,0,1-2.037,1.028" transform="translate(-10.074 -10.137)" fill="#2D6AF6"/>
        <path id="Path_1248" data-name="Path 1248" d="M23.694,31.736,21.8,30.52a4.955,4.955,0,0,1-2.215-3.208,5.916,5.916,0,0,1,1.231-5.247,6.708,6.708,0,0,0-1.089.543L17.76,23.786l1.329-1.874a5.318,5.318,0,0,1,4.556-2.357l.186,0a5.9,5.9,0,0,1,3.69,1.376,6.1,6.1,0,0,0-.535-1.072l-1.15-1.9,1.837,1.248a5.106,5.106,0,0,1,2.186,3.159,5.926,5.926,0,0,1-1.2,5.287,6.083,6.083,0,0,0,1.061-.562l1.418-.9-.72,1.52a5.064,5.064,0,0,1-3.275,2.319,5.944,5.944,0,0,1-5.212-1.252,5.184,5.184,0,0,0,.546,1.072ZM21.87,29.979c.063.046.129.09.2.133h0a4.813,4.813,0,0,1-.8-2.012l-.007-.055a4.07,4.07,0,0,0,.25,1Zm-1.849-2.973c.013.067.026.134.041.2a4.556,4.556,0,0,0,1.087,2.138l-.047-.053a4.589,4.589,0,0,1-1.039-2.085c-.015-.067-.028-.134-.041-.2m.77-.851.81.945a5.2,5.2,0,0,0,5.339,1.979,3.926,3.926,0,0,0,.723-.231c-.131.006-.262.005-.394,0l-1.2-.064.9-.785a5.187,5.187,0,0,0,1.939-5.412,4.345,4.345,0,0,0-.207-.66q.011.217,0,.439l-.053,1.3-.81-1.013a5.13,5.13,0,0,0-4.041-2.121,4.728,4.728,0,0,0-2.032.364,4.116,4.116,0,0,1,.423,0l1.2.066-.905.784A5.18,5.18,0,0,0,20.535,27.1a4.509,4.509,0,0,0,.217.708c-.007-.136-.009-.272,0-.411Zm6.5,2.208h0l.032,0L27.69,28q-.188.185-.4.365m2.683-.861h0a5.072,5.072,0,0,1-2.007.832l-.062.009a3.834,3.834,0,0,0,1.026-.277l.955-.4a1.81,1.81,0,0,0,.088-.164Zm-8.745-.051.369.369q-.185-.192-.367-.4h0ZM28.313,20.4l.046.052a4.589,4.589,0,0,1,1.028,2.027c0,.021.01.043.015.064,0-.021-.01-.043-.015-.064A4.572,4.572,0,0,0,28.313,20.4m-.459,1.514q.19.2.372.433h0c0-.014,0-.029,0-.044ZM19.623,22c-.047.061-.093.124-.138.188h0a7.581,7.581,0,0,1,.994-.514Zm2.516-.632-.364.365q.189-.184.4-.363ZM27.4,19.61h0a5.281,5.281,0,0,1,.792,2.021l.011.074a4.146,4.146,0,0,0-.252-1.008l-.367-.956q-.09-.067-.184-.131m-3.916.431a4.709,4.709,0,0,0-3.3,1.331l.169-.147a4.809,4.809,0,0,1,3.133-1.184m.255,0h.08l.166.007c-.055,0-.111-.005-.167-.007h-.079" transform="translate(-9.156 -9.26)" fill="#2D6AF6"/>
      </g>
    </g>
  </g>
</svg>